<svg xmlns="http://www.w3.org/2000/svg" viewBox="0 0 728.72 390.15"><defs><style>.cls-1{fill:#fff;}</style></defs><title>Asset 3</title><g id="Layer_2" data-name="Layer 2"><g id="Layer_1-2" data-name="Layer 1"><path class="cls-1" d="M68.89,6.6C72.3,6.6,75.4,5.13,78.66,1l.62.73c-5.58,16.86-9.77,42-9.77,80.37,0,35.67,0,58.15,1.08,81.6h-2C64.85,110.42,58.49,63.27,53.22,33.47,49.49,15.64,45.92,8.06,41.11,8.06c-10.86,0-11,15.15-11,177.12C44.68,178.1,44.53,164.9,51,81.6h2c-2.64,67.18-3.41,149,0,220.11H51c-6.51-89.66-6.36-104.32-20.94-111.4,0,164.9-.62,191.53,9.62,191.53,5,0,8.53-7.82,12.41-26.14A1448,1448,0,0,0,70.9,206.19h2.17c-1.55,29.56-2.79,57.65-2.79,102.61,0,37.62,2.48,63.76,7.29,79.64l-.46.49c-3.26-4.16-6.52-5.62-9.62-5.62-7.76,0-16.29,5.62-27,5.62C16.76,388.93,0,363.76,0,190.31,0,24.19,17.53,1,38.94,1,50.89,1,60.51,6.6,68.89,6.6Z"/><path class="cls-1" d="M165.7,8.06c7.44,0,12.56-2.44,20.63-7.08l.31,1.22C180.28,9.53,172.06,16.61,173,129.72l1.86,229.89c.31,21.74-7.14,29.32-20.64,29.32-15.67,0-22.8-7.82-24.51-32.5l-15-326.38c-.93-12.22-3.1-14.9-6.51-14.9-3.73,0-5.74,6.1-4.81,17.83l4.19,237.22c2.32,102.36,7.75,109.69,15.66,118.24l-.31,1c-8.37-5.13-13.49-7.09-20.79-7.09-6.2,0-11,1.47-19.08,7.09l-.31-1c6.21-7.09,14.43-18.57,14.59-118.73l.31-238.44C97.43,10.51,102.4,1,116.67,1c13.81,0,23.74,9.28,25.91,43.24l14.89,316.61C158.56,374,161,376.47,164,376.47c3.41,0,6.67-5.38,5.58-18.33l-6.51-229.39C159.64,22.48,153.13,9,146.46,2.2L146.77,1C154.84,6.6,159.8,8.06,165.7,8.06Z"/><path class="cls-1" d="M217.2,389.42l-.31-1c6.83-7.09,11.64-19.55,11.64-128.26V27.12c0-15.64-1.86-19.55-5.12-19.55-4,0-5.58,7.58-8.07,25.9-5.27,42.75-14,112.38-19.39,190.31h-2c1.09-41,2-79.64,2.64-142.18-.62-37.87-3.1-65.23-7.45-81.11l.62-.49c2.33,4.15,5.74,6.6,9.62,6.6C205.1,6.6,212.08,1,221.86,1c4.81,0,10.86,5.62,19.7,5.62C249.94,6.6,255.84,1,260.8,1c9.46,0,16.6,5.62,22.5,5.62,3.57,0,7-2.45,9.62-6.6l.62.49c-4.66,15.88-7.14,43.24-7.45,81.11.31,62.54,1.24,101.14,2.64,142.18h-2C281,145.85,272.59,76.22,267.32,33.47c-2.49-18.32-4.35-25.9-8.07-25.9-3.26,0-5.12,3.91-5.12,19.55V260.18c0,108.71,4.81,121.17,11.64,128.26l-.32,1c-9.15-5.13-15.51-7.09-23.42-7.09h-1.4C232.72,382.33,226.36,384.29,217.2,389.42Z"/><path class="cls-1" d="M296.17,389.42l-.31-1c6.83-7.09,11.64-19.55,11.64-128.26V129.24C307.5,20.52,302.69,8.06,295.86,1l.31-1c9.16,5.13,15.52,7.08,23.43,7.08S336.05,1,345.35,1c19.55,0,30.41,9.28,30.41,38.35,0,11.73-1.7,35.18-1.7,56.44,0,21.49,8.53,52,8.53,63.51,0,22.24-9.62,28.34-30.41,28.34-5.89,0-10.24.74-10.24,7.82,0,7.33,5.74,7.82,14.9,7.82,18.3,0,26.22,6.84,26.22,33.47,0,21.25-4.19,41.53-8.54,61.32,9.31,10,14.28,26.14,14.28,49.83,0,30.05-5.74,40.56-20.33,40.56-14.89,0-26.68-11.48-26.68-45.2,0-48.61,18.46-100.89,18.46-119,0-8.55-2.17-12.46-7.45-13-11.48-1.22-14.89-5.62-14.89-15.39,0-11.48,4.81-14.17,13.5-15.64,6.67-1,8.37-5.62,8.37-12.7,0-11-10.55-41.53-10.55-70.11,0-28.83,4-55,4-72.56,0-12.71-2-17.35-8.07-17.35-7.6,0-12.1,6.6-12.1,116.05V291.21c.93,80.13,5.43,90.88,11.48,97.23l-.31,1c-9.16-5.13-15.52-7.09-23.43-7.09H319.6C311.69,382.33,305.33,384.29,296.17,389.42Zm77.89-9c6.36,0,10.24-10,10.24-32,0-21.25-2.64-34.93-10.86-45.44-4,18.57-7.76,36.4-7.76,54C365.68,370.6,368.47,380.38,374.06,380.38Z"/><path class="cls-1" d="M400.43,348.62c0-21,10.71-35.92,10.71-58.15,0-47.88-11.48-72.8-11.48-96.74,0-24.19,12.72-45.93,12.72-94.79,0-22.23-8.53-41.53-8.53-64.25C403.85,10.75,418.12,1,442.94,1s39.72,9.77,39.72,33.71c0,22.72-8.22,42-8.22,64.25,0,48.86,12.72,70.6,12.72,94.79,0,23.94-11.64,48.86-11.64,96.74,0,22.23,10.86,37.14,10.86,58.15,0,30.53-16.6,40.31-43.44,40.31C416.88,388.93,400.43,379.15,400.43,348.62Zm59.27,16.12c0-17.83-11.64-42.26-11.64-73.29,0-66.69,33.67-64.74,33.67-97.23,0-33.47-34.6-45.44-34.6-96.5,0-30.78,11.33-55.46,11.33-73,0-12.46-4.66-16.61-15.52-16.61-10.39,0-14.89,4.15-14.89,16.61,0,17.59,11.48,42.27,11.48,73.05,0,51.06-34.6,63-34.6,96.5,0,32.49,33.82,30.54,33.82,97.23,0,31-11.79,55.46-11.79,73.29,0,12.95,4.81,16.86,16,16.86C454.58,381.6,459.7,377.69,459.7,364.74Z"/><path class="cls-1" d="M496,389.42l-.31-1c6.83-7.09,11.64-19.55,11.64-128.26V129.24C507.33,20.52,502.52,8.06,495.69,1L496,0c9.16,5.13,15.52,7.08,23.43,7.08s16.76-6.1,25-6.1c20.48,0,32.89,9.77,32.89,33.47,0,20-7.29,37.86-7.29,57.9,0,36.89,12.26,52.76,12.26,70.84s-11,36.65-11,72.8c0,19.55,9.15,33.23,9.15,51.8,0,32.24-13.65,42.26-30.72,42.26-9.15,0-16.75-5.86-21.87-10.26-2.33-1.71-3.57,1.22-1.24,3.91,5.43,5.13,6.82,15.88,8.69,31,2.32,22,4.81,29.08,9,33.72l-.31,1c-9.15-5.13-15.51-7.09-23.27-7.09h-1.24C511.52,382.33,505.16,384.29,496,389.42Zm60-85.51c0-16.86-10.71-39.33-10.71-67.43,0-49.83,31.5-48.37,31.5-72.8,0-25.41-32.43-33.71-32.43-72.07,0-27.85,10.39-50.57,10.39-66.94,0-12-2.63-16.85-10.08-16.85-7.6,0-11.79,6.35-11.79,114.09v82.33c0,99.67,4.5,116.77,13.5,116.77C553.25,321,556.05,316.13,556.05,303.91Z"/><path class="cls-1" d="M592.66,389.42l-.31-1c6.83-7.09,11.63-19.55,11.63-128.26V129.24C604,20.52,599.18,8.06,592.35,1l.31-1c9.15,5.13,15.51,7.08,23.43,7.08h1.39c7.91,0,14.28-1.95,23.43-7.08l.31,1c-6.83,7.08-11.64,19.54-11.64,128.26v162c.94,80.13,5.43,90.88,11.49,97.23l-.32,1c-9.15-5.13-15.51-7.09-23.42-7.09h-1.24C608.17,382.33,601.81,384.29,592.66,389.42Z"/><path class="cls-1" d="M677.06,388.19c-7.45,0-10.4-5.13-16.6-5.13-5.43,0-9.62,2-17.07,7.09l-.16-1c6.52-7.08,12.11-19.79,16.29-129.23l8.07-225.49c1.55-27.12,5.12-32.74,16-32.74,12.1,0,18,11,19.09,30.05l9.93,228.18c4.65,109.2,9.92,122.88,16.13,129.23l-.31,1c-10.24-5.62-17.38-7.09-26.53-7.09C693.35,383.06,685.59,388.19,677.06,388.19Zm8.53-81.35H668.37c.15,49.84,2.48,76.22,8.38,76.22C681.4,383.06,685.28,370.36,685.59,306.84Zm-16.76-46.42c-.15,9.29-.31,18.08-.31,26.39h17.22c-.15-8.31-.15-17.35-.31-27.12L682.49,27.12c-.16-8.8-1.86-12.22-4.81-12.22s-4.81,3.42-5.12,19.3Z"/></g></g></svg>